# xmcd
#
# Track frame offsets:
#	150
#	14378
#	26588
#	45743
#	60793
#	80060
#	94414
#	105924
#	121198
#	136613
# Disc length: 1990 seconds
# Revision: 8
# Processed by: cddbd v1.5.1PL2 Copyright (c) Steve Scherf et al.
#
# Submitted via: libkcddb 0.31
#
DISCID=7007c40a
DTITLE=А.Макаревич, М.Леонидов, Е.Маргулис, А.Свиридова, Т.Лазарева, Оркестр Креольского Танго - Тонкий шрам на любимой попе. Песни Марка Фрейдкина
DYEAR=2003
DGENRE=Chanson
TTITLE0=Брассенс и Бернес
TTITLE1=Универсальная песня на день рождения
TTITLE2=Соседка
TTITLE3=Печальный Шура
TTITLE4=Тонкий шрам на любимой попе
TTITLE5=Песня про отца
TTITLE6=Песня про Машу и ее сучку
TTITLE7=Бабушка Ревекка
TTITLE8=Песня о всеобщей утрате девственности
TTITLE9=Вонючий скунс
EXTD=Pesni  na slova Freidkina YEAR: 2003
EXTT0=
EXTT1=
EXTT2=
EXTT3=
EXTT4=
EXTT5=
EXTT6=
EXTT7=
EXTT8=
EXTT9=
PLAYORDER=
